<mxfile host="app.diagrams.net" modified="2023-06-09T01:57:17.908Z" agent="Mozilla/5.0 (Macintosh; Intel Mac OS X 10_15_7) AppleWebKit/537.36 (KHTML, like Gecko) Chrome/113.0.0.0 Safari/537.36" version="21.3.8" etag="_nQpUb0a9FefUAk-S9W_" type="github">
  <diagram name="第 1 页" id="U_N3PkE2-vXHr4QoZnwZ">
    <mxGraphModel>
      <root>
        <mxCell id="0" />
        <mxCell id="1" parent="0" />
      </root>
    </mxGraphModel>
  </diagram>
</mxfile>
